<mxfile host="app.diagrams.net" modified="2023-11-23T09:22:25.945Z" agent="Mozilla/5.0 (Windows NT 10.0; Win64; x64) AppleWebKit/537.36 (KHTML, like Gecko) Chrome/119.0.0.0 Safari/537.36" etag="xluzzdEzQdRgor08NVm9" version="22.1.3" type="github">
  <diagram name="Page-1" id="ehFeiuVAooeMIGg2a5Rl">
    <mxGraphModel dx="1588" dy="912" grid="1" gridSize="10" guides="1" tooltips="1" connect="1" arrows="1" fold="1" page="1" pageScale="1" pageWidth="850" pageHeight="1100" math="0" shadow="0">
      <root>
        <mxCell id="0" />
        <mxCell id="1" parent="0" />
        <mxCell id="qI55RkP86m5j6ExGNm6O-3" value="" style="rounded=0;whiteSpace=wrap;html=1;" vertex="1" parent="1">
          <mxGeometry x="240" y="240" width="450" height="790" as="geometry" />
        </mxCell>
        <mxCell id="qI55RkP86m5j6ExGNm6O-4" value="Memilih buku" style="ellipse;whiteSpace=wrap;html=1;fillColor=#dae8fc;strokeColor=#6c8ebf;" vertex="1" parent="1">
          <mxGeometry x="390" y="270" width="175" height="60" as="geometry" />
        </mxCell>
        <mxCell id="qI55RkP86m5j6ExGNm6O-5" value="Peminjam Buku" style="shape=umlActor;verticalLabelPosition=bottom;verticalAlign=top;html=1;outlineConnect=0;fillColor=#f8cecc;strokeColor=#b85450;" vertex="1" parent="1">
          <mxGeometry x="120" y="550" width="55" height="110" as="geometry" />
        </mxCell>
        <mxCell id="qI55RkP86m5j6ExGNm6O-8" value="Meminjam Buku" style="ellipse;whiteSpace=wrap;html=1;fillColor=#dae8fc;strokeColor=#6c8ebf;" vertex="1" parent="1">
          <mxGeometry x="390" y="340" width="175" height="60" as="geometry" />
        </mxCell>
        <mxCell id="qI55RkP86m5j6ExGNm6O-9" value="Menyerahkan KTM" style="ellipse;whiteSpace=wrap;html=1;fillColor=#dae8fc;strokeColor=#6c8ebf;" vertex="1" parent="1">
          <mxGeometry x="390" y="410" width="175" height="60" as="geometry" />
        </mxCell>
        <mxCell id="qI55RkP86m5j6ExGNm6O-10" value="Pendataan Peminjaman" style="ellipse;whiteSpace=wrap;html=1;fillColor=#dae8fc;strokeColor=#6c8ebf;" vertex="1" parent="1">
          <mxGeometry x="390" y="480" width="175" height="60" as="geometry" />
        </mxCell>
        <mxCell id="qI55RkP86m5j6ExGNm6O-11" value="Registrasi Peminjaman Buku" style="ellipse;whiteSpace=wrap;html=1;fillColor=#dae8fc;strokeColor=#6c8ebf;" vertex="1" parent="1">
          <mxGeometry x="490" y="570" width="175" height="60" as="geometry" />
        </mxCell>
        <mxCell id="qI55RkP86m5j6ExGNm6O-12" value="Meng-input no KTM" style="ellipse;whiteSpace=wrap;html=1;fillColor=#dae8fc;strokeColor=#6c8ebf;" vertex="1" parent="1">
          <mxGeometry x="280" y="570" width="175" height="60" as="geometry" />
        </mxCell>
        <mxCell id="qI55RkP86m5j6ExGNm6O-14" value="Menentukan Batas waktu peminjaman" style="ellipse;whiteSpace=wrap;html=1;fillColor=#dae8fc;strokeColor=#6c8ebf;" vertex="1" parent="1">
          <mxGeometry x="341.25" y="670" width="272.5" height="60" as="geometry" />
        </mxCell>
        <mxCell id="qI55RkP86m5j6ExGNm6O-15" value="Mengembalikan Buku" style="ellipse;whiteSpace=wrap;html=1;fillColor=#dae8fc;strokeColor=#6c8ebf;" vertex="1" parent="1">
          <mxGeometry x="390" y="750" width="175" height="60" as="geometry" />
        </mxCell>
        <mxCell id="qI55RkP86m5j6ExGNm6O-16" value="Pendataan Pengembalian Buku" style="ellipse;whiteSpace=wrap;html=1;fillColor=#dae8fc;strokeColor=#6c8ebf;" vertex="1" parent="1">
          <mxGeometry x="347.5" y="830" width="260" height="60" as="geometry" />
        </mxCell>
        <mxCell id="qI55RkP86m5j6ExGNm6O-17" value="Mengembalikan Buku" style="ellipse;whiteSpace=wrap;html=1;fillColor=#dae8fc;strokeColor=#6c8ebf;" vertex="1" parent="1">
          <mxGeometry x="500" y="920" width="175" height="60" as="geometry" />
        </mxCell>
        <mxCell id="qI55RkP86m5j6ExGNm6O-18" value="Mengembalikan Buku" style="ellipse;whiteSpace=wrap;html=1;fillColor=#dae8fc;strokeColor=#6c8ebf;" vertex="1" parent="1">
          <mxGeometry x="250" y="920" width="175" height="60" as="geometry" />
        </mxCell>
        <mxCell id="qI55RkP86m5j6ExGNm6O-19" value="" style="endArrow=classic;html=1;rounded=0;exitX=0.5;exitY=0.5;exitDx=0;exitDy=0;exitPerimeter=0;entryX=0;entryY=1;entryDx=0;entryDy=0;" edge="1" parent="1" source="qI55RkP86m5j6ExGNm6O-5" target="qI55RkP86m5j6ExGNm6O-4">
          <mxGeometry width="50" height="50" relative="1" as="geometry">
            <mxPoint x="290" y="680" as="sourcePoint" />
            <mxPoint x="340" y="630" as="targetPoint" />
          </mxGeometry>
        </mxCell>
        <mxCell id="qI55RkP86m5j6ExGNm6O-20" value="" style="endArrow=classic;html=1;rounded=0;exitX=0.5;exitY=0.5;exitDx=0;exitDy=0;exitPerimeter=0;entryX=0;entryY=0.5;entryDx=0;entryDy=0;" edge="1" parent="1" source="qI55RkP86m5j6ExGNm6O-5" target="qI55RkP86m5j6ExGNm6O-8">
          <mxGeometry width="50" height="50" relative="1" as="geometry">
            <mxPoint x="290" y="540" as="sourcePoint" />
            <mxPoint x="340" y="490" as="targetPoint" />
          </mxGeometry>
        </mxCell>
        <mxCell id="qI55RkP86m5j6ExGNm6O-21" value="Staff Perpustakaan" style="shape=umlActor;verticalLabelPosition=bottom;verticalAlign=top;html=1;outlineConnect=0;fillColor=#f8cecc;strokeColor=#b85450;" vertex="1" parent="1">
          <mxGeometry x="730" y="550" width="55" height="110" as="geometry" />
        </mxCell>
        <mxCell id="qI55RkP86m5j6ExGNm6O-22" value="" style="endArrow=classic;html=1;rounded=0;exitX=1;exitY=0.5;exitDx=0;exitDy=0;entryX=0.5;entryY=0.5;entryDx=0;entryDy=0;entryPerimeter=0;" edge="1" parent="1" source="qI55RkP86m5j6ExGNm6O-8" target="qI55RkP86m5j6ExGNm6O-21">
          <mxGeometry width="50" height="50" relative="1" as="geometry">
            <mxPoint x="290" y="540" as="sourcePoint" />
            <mxPoint x="340" y="490" as="targetPoint" />
          </mxGeometry>
        </mxCell>
        <mxCell id="qI55RkP86m5j6ExGNm6O-24" value="" style="endArrow=classic;html=1;rounded=0;exitX=0.5;exitY=0.5;exitDx=0;exitDy=0;exitPerimeter=0;entryX=0;entryY=0.5;entryDx=0;entryDy=0;" edge="1" parent="1" source="qI55RkP86m5j6ExGNm6O-5" target="qI55RkP86m5j6ExGNm6O-9">
          <mxGeometry width="50" height="50" relative="1" as="geometry">
            <mxPoint x="290" y="540" as="sourcePoint" />
            <mxPoint x="340" y="490" as="targetPoint" />
          </mxGeometry>
        </mxCell>
        <mxCell id="qI55RkP86m5j6ExGNm6O-25" value="" style="endArrow=classic;html=1;rounded=0;exitX=1;exitY=0.5;exitDx=0;exitDy=0;entryX=0.5;entryY=0.5;entryDx=0;entryDy=0;entryPerimeter=0;" edge="1" parent="1" source="qI55RkP86m5j6ExGNm6O-9" target="qI55RkP86m5j6ExGNm6O-21">
          <mxGeometry width="50" height="50" relative="1" as="geometry">
            <mxPoint x="290" y="540" as="sourcePoint" />
            <mxPoint x="340" y="490" as="targetPoint" />
          </mxGeometry>
        </mxCell>
        <mxCell id="qI55RkP86m5j6ExGNm6O-26" value="" style="endArrow=classic;html=1;rounded=0;exitX=1;exitY=0.5;exitDx=0;exitDy=0;entryX=0.5;entryY=0.5;entryDx=0;entryDy=0;entryPerimeter=0;" edge="1" parent="1" source="qI55RkP86m5j6ExGNm6O-10" target="qI55RkP86m5j6ExGNm6O-21">
          <mxGeometry width="50" height="50" relative="1" as="geometry">
            <mxPoint x="290" y="540" as="sourcePoint" />
            <mxPoint x="340" y="490" as="targetPoint" />
          </mxGeometry>
        </mxCell>
        <mxCell id="qI55RkP86m5j6ExGNm6O-42" value="Extends" style="endArrow=open;endSize=12;dashed=1;html=1;rounded=0;exitX=0;exitY=1;exitDx=0;exitDy=0;entryX=0.5;entryY=0;entryDx=0;entryDy=0;" edge="1" parent="1" source="qI55RkP86m5j6ExGNm6O-10" target="qI55RkP86m5j6ExGNm6O-12">
          <mxGeometry width="160" relative="1" as="geometry">
            <mxPoint x="240" y="650" as="sourcePoint" />
            <mxPoint x="400" y="650" as="targetPoint" />
          </mxGeometry>
        </mxCell>
        <mxCell id="qI55RkP86m5j6ExGNm6O-43" value="Extends" style="endArrow=open;endSize=12;dashed=1;html=1;rounded=0;exitX=1;exitY=1;exitDx=0;exitDy=0;entryX=0.5;entryY=0;entryDx=0;entryDy=0;" edge="1" parent="1" source="qI55RkP86m5j6ExGNm6O-10" target="qI55RkP86m5j6ExGNm6O-11">
          <mxGeometry width="160" relative="1" as="geometry">
            <mxPoint x="426" y="541" as="sourcePoint" />
            <mxPoint x="378" y="580" as="targetPoint" />
          </mxGeometry>
        </mxCell>
        <mxCell id="qI55RkP86m5j6ExGNm6O-44" value="" style="endArrow=classic;html=1;rounded=0;exitX=0;exitY=0.5;exitDx=0;exitDy=0;entryX=0.5;entryY=0.5;entryDx=0;entryDy=0;entryPerimeter=0;" edge="1" parent="1" source="qI55RkP86m5j6ExGNm6O-14" target="qI55RkP86m5j6ExGNm6O-5">
          <mxGeometry width="50" height="50" relative="1" as="geometry">
            <mxPoint x="290" y="680" as="sourcePoint" />
            <mxPoint x="340" y="630" as="targetPoint" />
          </mxGeometry>
        </mxCell>
        <mxCell id="qI55RkP86m5j6ExGNm6O-45" value="" style="endArrow=classic;html=1;rounded=0;exitX=0.5;exitY=0.5;exitDx=0;exitDy=0;entryX=1;entryY=0.5;entryDx=0;entryDy=0;exitPerimeter=0;" edge="1" parent="1" source="qI55RkP86m5j6ExGNm6O-21" target="qI55RkP86m5j6ExGNm6O-14">
          <mxGeometry width="50" height="50" relative="1" as="geometry">
            <mxPoint x="351" y="710" as="sourcePoint" />
            <mxPoint x="158" y="615" as="targetPoint" />
          </mxGeometry>
        </mxCell>
        <mxCell id="qI55RkP86m5j6ExGNm6O-46" value="" style="endArrow=classic;html=1;rounded=0;exitX=0.5;exitY=0.5;exitDx=0;exitDy=0;exitPerimeter=0;entryX=0;entryY=0.5;entryDx=0;entryDy=0;" edge="1" parent="1" source="qI55RkP86m5j6ExGNm6O-5" target="qI55RkP86m5j6ExGNm6O-15">
          <mxGeometry width="50" height="50" relative="1" as="geometry">
            <mxPoint x="290" y="680" as="sourcePoint" />
            <mxPoint x="340" y="630" as="targetPoint" />
          </mxGeometry>
        </mxCell>
        <mxCell id="qI55RkP86m5j6ExGNm6O-47" value="" style="endArrow=classic;html=1;rounded=0;exitX=1;exitY=0.5;exitDx=0;exitDy=0;entryX=0.5;entryY=0.5;entryDx=0;entryDy=0;entryPerimeter=0;" edge="1" parent="1" source="qI55RkP86m5j6ExGNm6O-15" target="qI55RkP86m5j6ExGNm6O-21">
          <mxGeometry width="50" height="50" relative="1" as="geometry">
            <mxPoint x="158" y="615" as="sourcePoint" />
            <mxPoint x="400" y="790" as="targetPoint" />
          </mxGeometry>
        </mxCell>
        <mxCell id="qI55RkP86m5j6ExGNm6O-48" value="" style="endArrow=classic;html=1;rounded=0;exitX=0.5;exitY=0;exitDx=0;exitDy=0;entryX=0.5;entryY=0.5;entryDx=0;entryDy=0;entryPerimeter=0;" edge="1" parent="1" source="qI55RkP86m5j6ExGNm6O-16" target="qI55RkP86m5j6ExGNm6O-21">
          <mxGeometry width="50" height="50" relative="1" as="geometry">
            <mxPoint x="290" y="680" as="sourcePoint" />
            <mxPoint x="340" y="630" as="targetPoint" />
          </mxGeometry>
        </mxCell>
        <mxCell id="qI55RkP86m5j6ExGNm6O-49" value="Extends" style="endArrow=open;endSize=12;dashed=1;html=1;rounded=0;exitX=0;exitY=1;exitDx=0;exitDy=0;entryX=0.5;entryY=0;entryDx=0;entryDy=0;" edge="1" parent="1" source="qI55RkP86m5j6ExGNm6O-16" target="qI55RkP86m5j6ExGNm6O-18">
          <mxGeometry width="160" relative="1" as="geometry">
            <mxPoint x="426" y="541" as="sourcePoint" />
            <mxPoint x="378" y="580" as="targetPoint" />
          </mxGeometry>
        </mxCell>
        <mxCell id="qI55RkP86m5j6ExGNm6O-50" value="Extends" style="endArrow=open;endSize=12;dashed=1;html=1;rounded=0;exitX=1;exitY=1;exitDx=0;exitDy=0;" edge="1" parent="1" source="qI55RkP86m5j6ExGNm6O-16" target="qI55RkP86m5j6ExGNm6O-17">
          <mxGeometry width="160" relative="1" as="geometry">
            <mxPoint x="396" y="891" as="sourcePoint" />
            <mxPoint x="348" y="930" as="targetPoint" />
          </mxGeometry>
        </mxCell>
      </root>
    </mxGraphModel>
  </diagram>
</mxfile>
